<svg xmlns="http://www.w3.org/2000/svg" xmlns:xlink="http://www.w3.org/1999/xlink" width="500" zoomAndPan="magnify" viewBox="0 0 375 374.999991" height="500" preserveAspectRatio="xMidYMid meet" version="1.0"><defs><g/></defs><g fill="#000000" fill-opacity="1"><g transform="translate(25.020841, 363.788211)"><g><path d="M 168.234375 6.527344 C 245.066406 6.527344 294.785156 -31.136719 294.785156 -92.402344 C 294.785156 -144.128906 260.132812 -175.265625 170.242188 -197.359375 C 101.945312 -213.933594 79.347656 -232.011719 79.347656 -261.136719 C 79.347656 -294.785156 109.476562 -315.878906 159.695312 -315.878906 C 211.421875 -315.878906 243.5625 -289.761719 244.566406 -247.578125 L 288.257812 -247.578125 C 287.753906 -315.878906 238.539062 -358.0625 159.695312 -358.0625 C 82.859375 -358.0625 34.148438 -320.398438 34.148438 -261.136719 C 34.148438 -206.902344 72.816406 -176.769531 159.195312 -156.179688 C 222.46875 -141.113281 249.085938 -123.539062 249.085938 -90.894531 C 249.085938 -56.246094 217.949219 -35.65625 168.234375 -35.65625 C 113.496094 -35.65625 75.328125 -62.773438 74.324219 -107.96875 L 30.132812 -107.96875 C 30.632812 -39.171875 84.367188 6.527344 168.234375 6.527344 Z M 168.234375 6.527344 "/></g></g></g><g fill="#000000" fill-opacity="1"><g transform="translate(69.813471, 242.536971)"><g><path d="M 123.128906 38.265625 L 160.996094 50.035156 L 212.804688 -116.675781 L 174.9375 -128.445312 L 155.027344 -64.378906 L 89.773438 -84.660156 L 109.683594 -148.722656 L 71.816406 -160.492188 L 20.003906 6.21875 L 57.871094 17.984375 L 78.746094 -49.175781 L 144 -28.894531 Z M 123.128906 38.265625 "/></g></g></g></svg>